<?xml version="1.0" encoding="UTF-8"?>
<svg id="Layer_1" xmlns="http://www.w3.org/2000/svg" xmlns:xlink="http://www.w3.org/1999/xlink" version="1.1" viewBox="0 0 637 90">
  <!-- Generator: Adobe Illustrator 29.5.1, SVG Export Plug-In . SVG Version: 2.1.0 Build 141)  -->
  <defs>
    <style>
      .st0 {
        fill: none;
      }

      .st1, .st2, .st3 {
        fill: #963862;
      }

      .st2 {
        fill-rule: evenodd;
      }

      .st4, .st3 {
        font-family: GillSansMT-Bold, 'Gill Sans MT';
        font-size: 30px;
        font-weight: 700;
      }

      .st5 {
        clip-path: url(#clippath);
      }
    </style>
    <clipPath id="clippath">
      <rect class="st0" width="637" height="90"/>
    </clipPath>
  </defs>
  <g class="st5">
    <g>
      <path class="st2" d="M48.15,61.75c-5.16-11.94.09-26.44,12.28-30.98,7.65-2.84,23.3-2.84,29.63,17.82,6.33-20.64,21.98-20.66,29.63-17.82,12.2,4.54,17.45,19.04,12.29,30.98-5.71,13.19-15.42,22.32-24.08,28.25h72.23C180.13,40.3,139.8,0,90.07,0S0,40.3,0,90h72.37c-8.71-5.99-18.54-15.13-24.22-28.25Z"/>
      <path class="st1" d="M236.08,57.03c-2.87,2.73-7.79,5.16-13.11,5.16-9.45,0-16.44-6.09-16.44-16.38s7-16.47,16.44-16.47c8.21,0,12.87,4.6,13.06,12.06l-6.06,1.27c-.09-4.46-2.34-7.22-7.09-7.22-5.64,0-9.53,3.75-9.53,10.37s3.89,10.29,9.76,10.29c3.95,0,7.51-1.83,9.87-3.98l3.1,4.93v-.04Z"/>
      <path class="st1" d="M255.37,29.81h7.7l12.36,31.91h-6.68l-2.45-6.38h-14.51l-2.49,6.38h-6.66l12.73-31.91ZM253.48,50.47h11.17l-5.45-14.13-5.73,14.13Z"/>
      <path class="st1" d="M282.9,29.81h14.05c6.29,0,12.73,2.54,12.73,10.37,0,5.3-3.9,9.11-9.02,9.9,3.01,2.91,6.1,6.43,9.45,6.43,1.08,0,2.54-.28,3.58-.76l.65,5.21c-1.32.65-3.19,1.22-5.27,1.22-7.14,0-12.41-9.02-16.39-11.96h-3.19v11.5h-6.57v-31.91ZM289.47,35.53v9.53h8.18c3.01,0,5.16-1.78,5.16-4.74,0-3.15-2.17-4.79-5.16-4.79h-8.18Z"/>
      <path class="st1" d="M321.9,29.81h6.57v31.91h-6.57v-31.91Z"/>
      <path class="st1" d="M345.7,40.27v21.45h-6.57v-31.91h5.73l17.94,21.49v-21.49h6.57v31.91h-5.73l-17.94-21.45Z"/>
      <path class="st1" d="M408.74,42.86v14.97c-2.96,2.34-8.74,4.37-13.62,4.37-9.45,0-17.01-6.09-17.01-16.38s7.56-16.47,17.01-16.47c5.16,0,9.2,1.74,12.41,4.32l-3.05,5.02c-2.49-2.06-5.45-3.24-9.2-3.24-5.82,0-10.33,3.75-10.33,10.37s4.51,10.29,10.61,10.29c2.54,0,4.88-.65,6.63-1.69v-5.86h-8.41v-5.67h14.98l-.02-.02Z"/>
      <path class="st1" d="M419.99,29.81h13.34c6.94,0,11.09,2.68,11.09,8.49,0,3.33-1.89,5.64-4.93,6.8,4.65.9,7.47,3.42,7.47,8.07,0,5.27-3.98,8.54-11.46,8.54h-15.49v-31.91l-.02.02ZM432.26,42.61c3.33,0,5.36-.93,5.36-3.56,0-2.77-1.89-3.61-5.22-3.61h-5.82v7.19h5.68v-.02ZM434.56,56.08c3.61,0,5.36-1.18,5.36-3.75,0-2.91-2.11-3.95-5.92-3.95h-7.42v7.7h7.98Z"/>
      <path class="st1" d="M456.39,29.81h14.05c6.29,0,12.73,2.54,12.73,10.37,0,5.3-3.9,9.11-9.02,9.9,3.01,2.91,6.1,6.43,9.45,6.43,1.08,0,2.54-.28,3.56-.76l.65,5.21c-1.32.65-3.19,1.22-5.25,1.22-7.14,0-12.41-9.02-16.39-11.96h-3.19v11.5h-6.57v-31.91ZM462.96,35.53v9.53h8.18c3.01,0,5.16-1.78,5.16-4.74,0-3.15-2.17-4.79-5.16-4.79h-8.18Z"/>
      <path class="st1" d="M496.1,29.81h6.57v31.91h-6.57v-31.91Z"/>
      <path class="st1" d="M513.47,30.09h13.77c9.45.05,16.48,5.64,16.48,16.01s-7.05,15.9-16.48,15.9h-13.77v-31.91ZM520.05,35.81v20.47h6.91c5.87,0,9.96-3.61,9.96-10.18s-4.09-10.29-9.96-10.29h-6.91Z"/>
      <path class="st1" d="M582.2,42.86v14.97c-2.96,2.34-8.74,4.37-13.62,4.37-9.45,0-17.01-6.09-17.01-16.38s7.56-16.47,17.01-16.47c5.16,0,9.2,1.74,12.41,4.32l-3.05,5.02c-2.49-2.06-5.45-3.24-9.2-3.24-5.82,0-10.33,3.75-10.33,10.37s4.51,10.29,10.61,10.29c2.54,0,4.88-.65,6.63-1.69v-5.86h-8.41v-5.67h14.98l-.02-.02Z"/>
      <path class="st1" d="M592.45,61.72v-31.91h25.28v5.78h-18.98v6.9h15.55v5.78h-15.55v7.7h18.98v5.78h-25.28v-.02Z"/>
      <path class="st1" d="M632.1,60.28l-3.48-5.08.69-.18.86-.07,2.69,3.98-.76,1.35ZM624.2,61.88v-6.35h1.45v6.35h-1.45ZM622.15,56.29v-1.34h5.56v1.34h-5.56ZM628.57,61.88v-6.93h1.47v6.93h-1.47ZM632.1,60.28l-.73-1.35,2.67-3.98.88.07.68.17-3.5,5.1ZM634.18,61.88v-6.93h1.47v6.93h-1.47Z"/>
    </g>
  </g>
  <text class="st3" transform="translate(191.65 25.73)"><tspan x="0" y="0">Our</tspan></text>
  <text class="st4" transform="translate(314.16 87)"><tspan x="0" y="0">Please do not donate.</tspan></text>
</svg>